<svg id="Planet" data-name="PlanetSVG" xmlns="http://www.w3.org/2000/svg" viewBox="0 0 1024 1024"><defs><style>.cls-1{fill:#af98ff;}.cls-2,.cls-3{fill:#0053c9;}.cls-3{stroke:#0053c9;stroke-linecap:round;stroke-miterlimit:10;}</style></defs><circle class="cls-1" cx="512.5" cy="511.5" r="294.5"/><path class="cls-2" d="M213,540c-8.23,6.51-16.43,13-24.27,19.94a250.8,250.8,0,0,0-22.3,21.63,95.76,95.76,0,0,0-9.18,11.95,42.73,42.73,0,0,0-3.36,6.3,20.57,20.57,0,0,0-1.61,6.14,8.92,8.92,0,0,0,.91,4.95,11.46,11.46,0,0,0,3.56,3.86,25.05,25.05,0,0,0,5.69,3l1.59.62,1.68.54c1.09.38,2.29.63,3.43,1a106.72,106.72,0,0,0,14.57,2.43c5,.52,10,.78,15.14.9,10.18.23,20.46,0,30.74-.67,20.57-1.27,41.17-3.64,61.7-6.59,41.06-6,81.89-14,122.35-23.5,20.22-4.78,40.38-9.82,60.37-15.41s39.86-11.43,59.58-17.92,39.38-13.22,58.88-20.42,38.9-14.68,58.17-22.5,38.38-16,57.38-24.47q14.24-6.36,28.33-13t28.06-13.58c9.28-4.67,18.53-9.38,27.68-14.27s18.19-9.93,27.14-15.12,17.71-10.64,26.23-16.36a190.35,190.35,0,0,0,24-18.5,65.33,65.33,0,0,0,5-5.18,28.91,28.91,0,0,0,3.7-5.3,10.48,10.48,0,0,0,.88-2.28,3.5,3.5,0,0,0,.09-1.34,2.31,2.31,0,0,0-.68-1.13,7.76,7.76,0,0,0-2-1.45,26.5,26.5,0,0,0-6.29-2.2,63.67,63.67,0,0,0-7.27-1.26c-5-.61-10.12-.87-15.28-1-10.32-.18-20.76.22-31.2.84S795.46,382.1,785,383c20.5-4.51,41.14-8.54,62.35-10.21a143.64,143.64,0,0,1,16.12-.45,74.56,74.56,0,0,1,8.31.71,36.12,36.12,0,0,1,8.73,2.27,18,18,0,0,1,4.6,2.73,12.88,12.88,0,0,1,3.81,5.21,13.5,13.5,0,0,1,.72,6.4,20.43,20.43,0,0,1-1.41,5.21,38.89,38.89,0,0,1-4.6,8,75.36,75.36,0,0,1-5.41,6.59,145.55,145.55,0,0,1-11.8,11.42c-4.07,3.56-8.24,7-12.47,10.24-8.46,6.56-17.19,12.65-26,18.55s-17.82,11.51-26.88,17-18.22,10.77-27.47,15.88-18.56,10.11-27.92,15-18.82,9.57-28.31,14.2c-19,9.28-38.19,18-57.56,26.38s-39,16.22-58.69,23.75-39.69,14.47-59.77,21-40.45,12.53-60.87,18-41,10.34-61.66,14.7-41.41,8.33-62.28,11.63c-10.43,1.66-20.88,3.23-31.37,4.6s-21,2.58-31.52,3.63-21.09,1.88-31.68,2.49-21.21,1-31.87,1-21.35-.29-32.08-1.29c-5.37-.5-10.75-1.14-16.13-2.08a113.26,113.26,0,0,1-16.18-3.91c-1.35-.5-2.69-.9-4-1.49l-2-.82-2-1a36.4,36.4,0,0,1-7.79-5,21.9,21.9,0,0,1-6.18-8.24,18.88,18.88,0,0,1-1.06-10.42,29.76,29.76,0,0,1,3.1-8.77,50.12,50.12,0,0,1,4.66-7.19,95.59,95.59,0,0,1,11.1-12A227,227,0,0,1,186.42,557C195.11,551,204,545.32,213,540Z"/><polygon class="cls-3" points="215.46 376.38 242.63 394.05 272.59 381.67 264.19 412.98 285.21 437.65 252.84 439.33 235.88 466.95 224.27 436.68 192.76 429.08 217.96 408.69 215.46 376.38"/><polygon class="cls-3" points="327.01 323.09 333.46 343.65 354.06 349.98 336.5 362.47 336.84 384.02 319.53 371.18 299.15 378.16 306.01 357.73 293.07 340.5 314.62 340.71 327.01 323.09"/></svg>